<svg xmlns="http://www.w3.org/2000/svg" enable-background="new 0 0 64 64" viewBox="0 0 64 64" id="celebration"><path fill="#07b7ee" d="M11.8 27c0-4.2 2.1-6.3 6.3-6.3-4.2 0-6.3-2.1-6.3-6.3 0 4.2-2.1 6.3-6.3 6.3C9.7 20.7 11.8 22.8 11.8 27zM13.4 42.1c0 4.2-2.1 6.3-6.3 6.3 4.2 0 6.3 2.1 6.3 6.3 0-4.2 2.1-6.3 6.2-6.3C15.5 48.4 13.4 46.3 13.4 42.1z"></path><path fill="#fdcf00" d="M35 34.7c-10.2 0-15.3-5.1-15.3-15.3 0 10.2-5.1 15.3-15.3 15.3 9.7 0 14.7 4.6 15.3 13.7 0 .5 0 1 0 1.6C19.7 39.8 24.8 34.7 35 34.7zM24.4 13.8c0-4.2 2.1-6.3 6.3-6.3-4.2 0-6.3-2.1-6.3-6.3 0 4.2-2.1 6.3-6.3 6.3C22.3 7.5 24.4 9.6 24.4 13.8z"></path><path fill="#ff4941" d="M30.5 46.2c0 5.9-3 8.9-8.9 8.9 5.9 0 8.9 3 8.9 8.9 0-5.9 3-8.9 8.9-8.9C33.4 55.1 30.5 52.1 30.5 46.2zM36.5 34.7c0-11.2 5.6-16.8 16.8-16.8-11.2 0-16.8-5.6-16.8-16.8 0 11.2-5.6 16.8-16.8 16.8C30.9 17.9 36.5 23.5 36.5 34.7z"></path><path fill="#07b7ee" d="M47.2,28.6c0,8.3-4.1,12.4-12.4,12.4c8.3,0,12.4,4.1,12.4,12.4c0-8.2,4.1-12.4,12.4-12.4
		C51.3,41,47.2,36.9,47.2,28.6z"></path><path fill="#fdcf00" d="M53.2,12.6c0-4.2,2.1-6.3,6.3-6.3c-4.2,0-6.3-2.1-6.3-6.3c0,4.2-2.1,6.3-6.3,6.3
		C51.1,6.3,53.2,8.4,53.2,12.6z"></path></svg>
